<?xml version="1.0" standalone="no"?><!DOCTYPE svg PUBLIC "-//W3C//DTD SVG 1.1//EN" "http://www.w3.org/Graphics/SVG/1.1/DTD/svg11.dtd"><svg t="1505706918321" class="icon" style="" viewBox="0 0 1026 1024" version="1.1" xmlns="http://www.w3.org/2000/svg" p-id="2001" xmlns:xlink="http://www.w3.org/1999/xlink" width="48.09375" height="48"><defs><style type="text/css"></style></defs><path d="M479.379501 479.379501H14.182825c-8.509695 0-14.182825 5.67313-14.182825 14.182826v36.875346c0 8.509695 5.67313 14.182825 14.182825 14.182826h465.196676v465.196676c0 8.509695 5.67313 14.182825 14.182826 14.182825h36.875346c8.509695 0 14.182825-5.67313 14.182826-14.182825V541.783934h465.196676c8.509695 0 14.182825-5.67313 14.182825-14.182826v-36.875346c0-8.509695-5.67313-14.182825-14.182825-14.182826H541.783934V14.182825c0-8.509695-5.67313-14.182825-14.182826-14.182825h-36.875346c-8.509695 0-14.182825 5.67313-14.182826 14.182825l2.836565 465.196676z" fill="#C5C4C4" p-id="2002"></path></svg>