<?xml version="1.0" standalone="no"?><!DOCTYPE svg PUBLIC "-//W3C//DTD SVG 1.1//EN" "http://www.w3.org/Graphics/SVG/1.1/DTD/svg11.dtd"><svg t="1505662699664" class="icon" style="" viewBox="0 0 1024 1024" version="1.1" xmlns="http://www.w3.org/2000/svg" p-id="1462" xmlns:xlink="http://www.w3.org/1999/xlink" width="16" height="16"><defs><style type="text/css"></style></defs><path d="M958.784 96s-351.744-4.992-364.8 3.008-56.64 96.64-94.016 94.016c-37.312-2.688-100.992-88-113.984-94.016S65.216 96 65.216 96a64 64 0 0 0-64 64v693.312a64 64 0 0 0 64 64s307.136-2.688 321.472 0 82.624 64 114.624 64 94.016-57.664 109.376-64 348.096 0 348.096 0a64 64 0 0 0 64-64V160a64 64 0 0 0-64-64zM477.312 930.688s-58.816-52.992-75.584-61.312-359.104 0-359.104 0V141.312s307.008-4.032 323.328 3.648 57.344 54.976 57.344 54.976l54.016 42.688v688.064z m501.376-61.376s-363.136-3.648-378.88 0-79.744 61.312-79.744 61.312V242.688l56.96-42.688s48.896-53.056 64.128-59.392 337.6 0.704 337.6 0.704v728z" fill="#C5C4C4" p-id="1463"></path></svg>