<?xml version="1.0" standalone="no"?><!DOCTYPE svg PUBLIC "-//W3C//DTD SVG 1.1//EN" "http://www.w3.org/Graphics/SVG/1.1/DTD/svg11.dtd"><svg t="1508333577441" class="icon" style="" viewBox="0 0 1024 1024" version="1.1" xmlns="http://www.w3.org/2000/svg" p-id="2780" xmlns:xlink="http://www.w3.org/1999/xlink" width="16" height="16"><defs><style type="text/css"></style></defs><path d="M915.2 476.16c-8.128 0-35.84 0-43.968 0-24.704 0-44.736 16-44.736 35.84s20.032 35.904 44.736 35.904c8.192 0 35.84 0 43.968 0C939.968 547.904 960 531.84 960 512S939.968 476.16 915.2 476.16zM512 265.6C375.296 265.6 265.536 375.424 265.536 512c0 136.704 109.76 246.464 246.464 246.464S758.4 648.704 758.4 512C758.4 375.424 648.704 265.6 512 265.6zM512 691.2c-99.008 0-179.2-80.128-179.2-179.2 0-98.944 80.192-179.2 179.2-179.2s179.2 80.256 179.2 179.2C691.2 611.072 611.008 691.2 512 691.2zM197.44 512c0-19.84-19.136-35.84-43.904-35.84-8.256 0-36.544 0-44.736 0C84.032 476.16 64 492.16 64 512s20.032 35.904 44.8 35.904c8.192 0 36.48 0 44.736 0C178.304 547.904 197.44 531.84 197.44 512zM512 198.464c19.776 0 35.84-20.032 35.84-44.8 0-8.192 0-36.544 0-44.8C547.84 84.032 531.84 64 512 64S476.096 84.032 476.096 108.8c0 8.256 0 36.608 0 44.8C476.096 178.368 492.224 198.464 512 198.464zM512 825.6c-19.776 0-35.904 20.032-35.904 44.8 0 8.192 0 36.544 0 44.736C476.096 940.032 492.16 960 512 960s35.84-20.032 35.84-44.8c0-8.192 0-36.544 0-44.736C547.84 845.696 531.776 825.6 512 825.6zM841.92 232.768c17.472-17.536 20.288-43.072 6.4-57.024-14.016-14.016-39.488-11.2-57.024 6.336-4.736 4.864-26.496 26.496-31.36 31.36-17.472 17.472-20.288 43.008-6.336 57.024 13.952 14.016 39.488 11.2 57.024-6.336C815.424 259.264 837.12 237.568 841.92 232.768L841.92 232.768zM213.376 759.936c-4.864 4.8-26.56 26.624-31.36 31.36-17.472 17.472-20.288 42.944-6.4 56.96 14.016 13.952 39.552 11.2 57.024-6.336 4.8-4.736 26.56-26.496 31.36-31.36 17.472-17.472 20.288-43.008 6.336-56.96C256.32 739.648 230.784 742.528 213.376 759.936zM232.704 182.016C215.168 164.48 189.696 161.664 175.68 175.68c-14.08 14.016-11.136 39.488 6.336 57.024 4.864 4.864 26.496 26.56 31.36 31.424 17.536 17.408 43.008 20.288 56.96 6.336 14.016-14.016 11.264-39.488-6.336-57.024C259.264 208.576 237.504 186.88 232.704 182.016zM759.872 810.624c4.864 4.864 26.624 26.624 31.36 31.424 17.536 17.408 43.072 20.224 57.088 6.336 13.952-14.016 11.072-39.552-6.4-57.024-4.864-4.8-26.56-26.496-31.36-31.36-17.472-17.408-43.072-20.288-57.024-6.336C739.584 767.68 742.528 793.152 759.872 810.624z" p-id="2781" fill="#ffffff"></path></svg>