<?xml version="1.0" standalone="no"?><!DOCTYPE svg PUBLIC "-//W3C//DTD SVG 1.1//EN" "http://www.w3.org/Graphics/SVG/1.1/DTD/svg11.dtd"><svg t="1508335424070" class="icon" style="" viewBox="0 0 1024 1024" version="1.1" xmlns="http://www.w3.org/2000/svg" p-id="5327" xmlns:xlink="http://www.w3.org/1999/xlink" width="16" height="16"><defs><style type="text/css"></style></defs><path d="M521.844364 767.992242l224.177131 221.044364c5.176889 5.09802 11.977697 7.615354 18.769454 7.559758l0.109899 0.005171 0.115071-0.005171c6.816323 0.03103 13.636525-2.497939 18.827637-7.599839l232.813899-220.444444a25.651717 25.651717 0 0 0 0-36.764445c-10.31499-10.193455-27.084283-10.193455-37.404445 0L791.11499 908.294465V65.667879c0-14.466586-11.728162-26.215434-26.214142-26.215435-14.491152 0-26.214141 11.748848-26.214141 26.215435v843.181252L558.991515 731.483798c-10.264566-10.088727-26.88-10.088727-37.148444 0a25.531475 25.531475 0 0 0 0.001293 36.508444zM339.181899 31.017374H97.974303C43.986747 31.017374 0.232727 78.739394 0.232727 132.617051v231.037414c0 53.893172 43.75402 97.568323 97.741576 97.568323h241.207596c53.987556 0 97.741576-43.675152 97.741576-97.568323V132.617051c0-53.877657-43.75402-101.599677-97.741576-101.599677z m49.541172 332.638384c0 27.269172-22.222869 49.455838-49.536 49.455838H97.974303c-27.313131 0-49.534707-22.185374-49.534707-49.455838V132.617051c0-27.264 22.221576-53.488485 49.534707-53.488485h241.207596c27.318303 0 49.541172 26.224485 49.541172 53.488485v231.038707z m-49.541172 201.739636H97.974303c-53.987556 0-97.741576 47.72202-97.741576 101.599677v231.038707c0 53.893172 43.75402 97.561859 97.741576 97.561858h241.207596c53.987556 0 97.741576-43.668687 97.741576-97.561858V666.996364c0-53.878949-43.75402-101.60097-97.741576-101.60097z m49.541172 332.639677c0 27.267879-22.222869 49.455838-49.536 49.455838H97.974303c-27.313131 0-49.534707-22.186667-49.534707-49.455838V666.996364c0-27.262707 22.221576-53.492364 49.534707-53.492364h241.207596c27.318303 0 49.541172 26.229657 49.541172 53.492364v231.038707z m0 0" fill="#2c2c2c" p-id="5328"></path></svg>