<?xml version="1.0" standalone="no"?><!DOCTYPE svg PUBLIC "-//W3C//DTD SVG 1.1//EN" "http://www.w3.org/Graphics/SVG/1.1/DTD/svg11.dtd"><svg t="1505667046343" class="icon" style="" viewBox="0 0 1024 1024" version="1.1" xmlns="http://www.w3.org/2000/svg" p-id="1906" xmlns:xlink="http://www.w3.org/1999/xlink" width="16" height="16"><defs><style type="text/css"></style></defs><path d="M911.6006 818.9379h-96.109568c0 0-8.3917 0.1536-14.3309-6.1194-5.9535-6.2761-5.5347-15.4276-5.5347-15.4276V233.81811199999999c0-38.4768-30.635-69.9546-68.0591-69.9546-37.4292 0-68.0591 31.4778-68.0591 69.9546v558.642176c0 0 0.6892 11.9276-5.4876 19.5338-6.1399 7.6104-16.3379 6.9437-16.3379 6.9437h-38.260736c0 0-6.3693 0.768-12.8287-6.7328-6.4891-7.5141-6.2013-16.6615-6.2013-16.6615V457.87340800000004c0-38.4737-30.6196-69.9515-68.0643-69.9515-37.4364 0-68.0581 31.4778-68.0581 69.9515v337.04755200000005c0 0 0.7117 10.2881-3.328 16.8653-4.0397 6.5884-16.7875 7.1516-16.7875 7.1516h-39.503872c0 0-9.8816-0.2591-15.0651-5.8132-5.1722-5.5542-4.436-17.5821-4.436-17.5821V536.549376c0-38.4778-30.633-69.9453-68.0643-69.9453-37.4313 0-68.055 31.4675-68.055 69.9453v260.84249600000004c0 0 0.2601 8.1705-6.2996 14.5295-7.806 8.0118-13.355 7.0175-13.355 7.0175h-96.314368c-19.8789 0-36.1349 9.9973-36.1349 22.231s16.256 22.2392 36.1349 22.2392h798.541824c19.8595 0 36.1267-10.0055 36.1267-22.2392S931.4591 818.9379 911.6006 818.9379z" p-id="1907" fill="#C5C4C4"></path></svg>